<mxfile host="65bd71144e">
    <diagram id="Oc14cfb6WML7pgX5KFoo" name="PÃ¡gina-1">
        <mxGraphModel dx="662" dy="354" grid="1" gridSize="10" guides="1" tooltips="1" connect="1" arrows="1" fold="1" page="1" pageScale="1" pageWidth="827" pageHeight="1169" math="0" shadow="0">
            <root>
                <mxCell id="0"/>
                <mxCell id="1" parent="0"/>
                <mxCell id="4" value="" style="edgeStyle=none;html=1;" edge="1" parent="1" source="2" target="3">
                    <mxGeometry relative="1" as="geometry"/>
                </mxCell>
                <mxCell id="2" value="Inicio" style="ellipse;whiteSpace=wrap;html=1;fillColor=#00FF00;" vertex="1" parent="1">
                    <mxGeometry x="30" y="30" width="120" height="80" as="geometry"/>
                </mxCell>
                <mxCell id="6" value="" style="edgeStyle=none;html=1;" edge="1" parent="1" source="3" target="5">
                    <mxGeometry relative="1" as="geometry"/>
                </mxCell>
                <mxCell id="3" value="c" style="shape=parallelogram;perimeter=parallelogramPerimeter;whiteSpace=wrap;html=1;fixedSize=1;fillColor=#0000FF;" vertex="1" parent="1">
                    <mxGeometry x="30" y="140" width="120" height="60" as="geometry"/>
                </mxCell>
                <mxCell id="8" value="" style="edgeStyle=none;html=1;" edge="1" parent="1" source="5" target="7">
                    <mxGeometry relative="1" as="geometry"/>
                </mxCell>
                <mxCell id="5" value="k= c + 273.15&lt;br&gt;f= 1.8 c + 32" style="whiteSpace=wrap;html=1;fillColor=#FF0000;" vertex="1" parent="1">
                    <mxGeometry x="30" y="240" width="120" height="60" as="geometry"/>
                </mxCell>
                <mxCell id="10" value="" style="edgeStyle=none;html=1;exitX=0.514;exitY=0.836;exitDx=0;exitDy=0;exitPerimeter=0;" edge="1" parent="1" source="7">
                    <mxGeometry relative="1" as="geometry">
                        <mxPoint x="90.47617547972234" y="440.0009447774919" as="targetPoint"/>
                    </mxGeometry>
                </mxCell>
                <mxCell id="7" value="f,k" style="shape=document;whiteSpace=wrap;html=1;boundedLbl=1;fillColor=#999900;" vertex="1" parent="1">
                    <mxGeometry x="30" y="340" width="120" height="80" as="geometry"/>
                </mxCell>
                <mxCell id="11" value="Fin" style="ellipse;whiteSpace=wrap;html=1;fillColor=#994C00;" vertex="1" parent="1">
                    <mxGeometry x="30" y="440" width="120" height="60" as="geometry"/>
                </mxCell>
            </root>
        </mxGraphModel>
    </diagram>
</mxfile>